TITLE ""
FILE "DISC1Track26.mp3" MP3
  TRACK 01 AUDIO
    TITLE "DISC1Track26_01"
    INDEX 01 00:00:00
  TRACK 02 AUDIO
    TITLE "DISC1Track26_02"
    INDEX 01 00:01:53
  TRACK 03 AUDIO
    TITLE "DISC1Track26_03"
    INDEX 01 00:01:61
  TRACK 04 AUDIO
    TITLE "DISC1Track26_04"
    INDEX 01 00:04:49
  TRACK 05 AUDIO
    TITLE "DISC1Track26_05"
    INDEX 01 00:07:69
  TRACK 06 AUDIO
    TITLE "DISC1Track26_06"
    INDEX 01 00:10:54
  TRACK 07 AUDIO
    TITLE "DISC1Track26_07"
    INDEX 01 00:10:69
  TRACK 08 AUDIO
    TITLE "DISC1Track26_08"
    INDEX 01 00:14:18
  TRACK 09 AUDIO
    TITLE "DISC1Track26_09"
    INDEX 01 00:17:22
  TRACK 10 AUDIO
    TITLE "DISC1Track26_10"
    INDEX 01 00:20:01
  TRACK 11 AUDIO
    TITLE "DISC1Track26_11"
    INDEX 01 00:20:17
  TRACK 12 AUDIO
    TITLE "DISC1Track26_12"
    INDEX 01 00:21:58
  TRACK 13 AUDIO
    TITLE "DISC1Track26_13"
    INDEX 01 00:23:64
  TRACK 14 AUDIO
    TITLE "DISC1Track26_14"
    INDEX 01 00:25:40
  TRACK 15 AUDIO
    TITLE "DISC1Track26_15"
    INDEX 01 00:25:55
  TRACK 16 AUDIO
    TITLE "DISC1Track26_16"
    INDEX 01 00:29:39
  TRACK 17 AUDIO
    TITLE "DISC1Track26_17"
    INDEX 01 00:32:49
  TRACK 18 AUDIO
    TITLE "DISC1Track26_18"
    INDEX 01 00:35:26
  TRACK 19 AUDIO
    TITLE "DISC1Track26_19"
    INDEX 01 00:35:34
  TRACK 20 AUDIO
    TITLE "DISC1Track26_20"
    INDEX 01 00:38:13
  TRACK 21 AUDIO
    TITLE "DISC1Track26_21"
    INDEX 01 00:40:63
  TRACK 22 AUDIO
    TITLE "DISC1Track26_22"
    INDEX 01 00:43:02
  TRACK 23 AUDIO
    TITLE "DISC1Track26_23"
    INDEX 01 00:43:14
  TRACK 24 AUDIO
    TITLE "DISC1Track26_24"
    INDEX 01 00:46:28
  TRACK 25 AUDIO
    TITLE "DISC1Track26_25"
    INDEX 01 00:50:14
  TRACK 26 AUDIO
    TITLE "DISC1Track26_26"
    INDEX 01 00:53:48
  TRACK 27 AUDIO
    TITLE "DISC1Track26_27"
    INDEX 01 00:53:57
  TRACK 28 AUDIO
    TITLE "DISC1Track26_28"
    INDEX 01 00:57:08
  TRACK 29 AUDIO
    TITLE "DISC1Track26_29"
    INDEX 01 01:00:42
  TRACK 30 AUDIO
    TITLE "DISC1Track26_30"
    INDEX 01 01:03:42
  TRACK 31 AUDIO
    TITLE "DISC1Track26_31"
    INDEX 01 01:03:52
  TRACK 32 AUDIO
    TITLE "DISC1Track26_32"
    INDEX 01 01:06:43
  TRACK 33 AUDIO
    TITLE "DISC1Track26_33"
    INDEX 01 01:09:39
  TRACK 34 AUDIO
    TITLE "DISC1Track26_34"
    INDEX 01 01:12:08
  TRACK 35 AUDIO
    TITLE "DISC1Track26_35"
    INDEX 01 01:12:22
  TRACK 36 AUDIO
    TITLE "DISC1Track26_36"
    INDEX 01 01:15:04
  TRACK 37 AUDIO
    TITLE "DISC1Track26_37"
    INDEX 01 01:19:04
  TRACK 38 AUDIO
    TITLE "DISC1Track26_38"
    INDEX 01 01:22:45
  TRACK 39 AUDIO
    TITLE "DISC1Track26_39"
    INDEX 01 01:22:59
  TRACK 40 AUDIO
    TITLE "DISC1Track26_40"
    INDEX 01 01:25:69
  TRACK 41 AUDIO
    TITLE "DISC1Track26_41"
    INDEX 01 01:28:64
  TRACK 42 AUDIO
    TITLE "DISC1Track26_42"
    INDEX 01 01:31:25
  TRACK 43 AUDIO
    TITLE "DISC1Track26_43"
    INDEX 01 01:31:37
  TRACK 44 AUDIO
    TITLE "DISC1Track26_44"
    INDEX 01 01:33:00
  TRACK 45 AUDIO
    TITLE "DISC1Track26_45"
    INDEX 01 01:34:72
  TRACK 46 AUDIO
    TITLE "DISC1Track26_46"
    INDEX 01 01:36:49
  TRACK 47 AUDIO
    TITLE "DISC1Track26_47"
    INDEX 01 01:36:65
  TRACK 48 AUDIO
    TITLE "DISC1Track26_48"
    INDEX 01 01:40:37
  TRACK 49 AUDIO
    TITLE "DISC1Track26_49"
    INDEX 01 01:44:25
  TRACK 50 AUDIO
    TITLE "DISC1Track26_50"
    INDEX 01 01:47:53
